PathFileType	4	(X/Y/Z)	TVC_26_Cal_03_0_static_RCNL2025.trc
DataRate	CameraRate	NumFrames	NumMarkers	Units	OrigDataRate	OrigDataStartFrame	OrigNumFrames
100	100	4	27	mm	100	316	420
Frame#	Time	R_Shoulder			L_Shoulder			C7			J_Notch			R_Elbow			L_Elbow			R_Wrist			L_Wrist			R_Asis			L_Asis			R_Psis			L_Psis			Sacral			Thoracic			Sternum			R_Thigh_Lateral			R_Knee_Lateral			R_Shank_Lateral			R_Ankle_Lateral			R_Heel			R_Toe			L_Thigh_Lateral			L_Knee_Lateral			L_Shank_Lateral			L_Ankle_Lateral			L_Heel			L_Toe		
		X1	Y1	Z1	X2	Y2	Z2	X3	Y3	Z3	X4	Y4	Z4	X5	Y5	Z5	X6	Y6	Z6	X7	Y7	Z7	X8	Y8	Z8	X9	Y9	Z9	X10	Y10	Z10	X11	Y11	Z11	X12	Y12	Z12	X13	Y13	Z13	X14	Y14	Z14	X15	Y15	Z15	X16	Y16	Z16	X17	Y17	Z17	X18	Y18	Z18	X19	Y19	Z19	X20	Y20	Z20	X21	Y21	Z21	X22	Y22	Z22	X23	Y23	Z23	X24	Y24	Z24	X25	Y25	Z25	X26	Y26	Z26	X27	Y27	Z27
316	3.15000000	-177.027267	1357.714966	-130.743912	-101.253235	1380.620117	-443.746033	-215.594864	1416.543701	-298.405762	-82.548508	1307.398438	-264.527161	-194.784790	1036.946899	14.346176	-104.808266	1046.187622	-529.050415	-178.934082	826.196198	51.643993	-99.198196	824.232727	-507.081665	-146.081360	951.251648	-128.623581	-49.945648	955.866577	-398.340759	-314.763184	973.451965	-256.186371	-268.975891	966.031433	-396.322815	-291.869537	969.741699	-326.254593	-286.888367	1140.568848	-332.334167	-36.366844	1074.573242	-269.506561	-227.978271	580.727966	-90.101303	-239.200150	434.386841	-137.329086	-257.552856	284.307373	-85.472282	-269.443085	76.582481	-136.330841	-312.970001	54.741341	-185.405655	-128.919510	39.995506	-150.176453	-85.952209	583.871765	-455.407959	-181.549515	415.933533	-423.439362	-163.838333	267.510712	-458.424896	-195.807480	67.095131	-390.112549	-251.156067	50.772701	-348.221680	-60.171024	39.798531	-350.348724
317	3.16000000	-177.121246	1357.792236	-130.618988	-101.319939	1380.570679	-443.705994	-215.757721	1416.558716	-298.407928	-82.679375	1307.367310	-264.467194	-194.769623	1036.989990	14.613700	-105.018288	1046.136963	-528.707947	-179.039536	826.114075	52.369922	-98.892284	824.245270	-506.743637	-146.178802	951.291870	-128.502411	-50.040562	955.847290	-398.234924	-314.949738	973.668579	-255.975159	-269.059845	966.008118	-396.228912	-292.004791	969.838348	-326.102036	-287.009735	1140.629395	-332.232086	-36.431034	1074.577515	-269.406097	-227.980591	580.773682	-90.076859	-239.274597	434.312622	-137.248001	-257.683533	284.206177	-85.577484	-269.435852	76.591011	-136.322235	-312.976227	54.732483	-185.343399	-128.891769	39.945126	-150.147217	-86.271324	584.005310	-455.619507	-181.579269	415.903137	-423.351685	-163.907028	267.316895	-458.158600	-195.743271	67.034584	-390.218628	-251.172333	50.715065	-348.206482	-59.975525	39.730980	-350.638550
318	3.17000000	-177.189697	1357.849243	-130.533417	-101.402435	1380.592773	-443.662201	-215.810440	1416.539795	-298.343414	-82.677872	1307.433838	-264.298615	-194.721222	1037.003052	14.873133	-105.143837	1046.029053	-528.781921	-179.421707	826.217163	52.731765	-99.338306	823.769897	-506.627213	-146.327789	951.296814	-128.379471	-50.116375	955.922058	-398.098938	-315.415863	973.751465	-255.686081	-269.124725	966.003906	-396.179230	-292.270294	969.877686	-325.932655	-287.175751	1140.609253	-332.118835	-36.544334	1074.613525	-269.252167	-228.204758	580.916199	-89.612747	-239.373505	434.242462	-137.065445	-258.395264	283.509918	-85.157425	-269.379211	76.538277	-136.347809	-312.953308	54.831482	-185.216751	-128.940369	39.920673	-150.147202	-86.426369	584.036560	-455.639374	-181.711487	415.984253	-423.330872	-164.063309	267.162140	-457.926239	-195.174973	67.880669	-390.332062	-251.199127	50.654774	-348.111450	-59.904789	39.747303	-350.686981
319	3.18000000	-177.295197	1357.904907	-130.488373	-101.506348	1380.571533	-443.615509	-215.871323	1416.572266	-298.273071	-82.856865	1307.490967	-264.254456	-194.815369	1037.061157	15.084774	-105.236336	1045.997070	-528.599060	-179.431259	826.672363	52.935957	-99.914017	823.551544	-506.439865	-146.522186	951.211487	-128.361847	-50.270897	955.884033	-398.051971	-315.349915	973.635498	-255.602341	-269.235260	966.005005	-396.081116	-292.292587	969.820251	-325.841728	-287.241608	1140.662354	-331.938080	-36.658791	1074.510986	-269.001984	-228.327637	580.945557	-89.369682	-239.331772	434.302826	-137.070999	-257.949341	283.959259	-85.300285	-269.398895	76.589729	-136.323532	-312.963074	54.760052	-185.188843	-128.915466	39.980091	-150.098343	-86.512894	584.112915	-455.427612	-181.777313	415.972046	-423.222015	-164.168961	267.147614	-457.760925	-195.655579	67.179909	-390.145508	-251.136444	50.682510	-348.135773	-59.899899	39.790871	-350.701904
